{
  "accessors": [
    {
      "bufferView": 2,
      "componentType": 5126,
      "count": 23274,
      "max": [
        0.7598670125007629,
        1.0,
        0.20114700496196747
      ],
      "min": [
        -0.7598670125007629,
        -1.0,
        -0.20114700496196747
      ],
      "type": "VEC3"
    },
    {
      "bufferView": 2,
      "byteOffset": 279288,
      "componentType": 5126,
      "count": 23274,
      "max": [
        0.9999843835830688,
        0.9999843835830688,
        0.9999222159385681
      ],
      "min": [
        -0.999984622001648,
        -0.9999847412109375,
        -0.9999232292175293
      ],
      "type": "VEC3"
    },
    {
      "bufferView": 3,
      "componentType": 5126,
      "count": 23274,
      "max": [
        0.9999849796295166,
        0.999767005443573,
        0.9999229907989502,
        1.0
      ],
      "min": [
        -0.9999849796295166,
        -0.9998409748077393,
        -0.9999060034751892,
        -1.0
      ],
      "type": "VEC4"
    },
    {
      "bufferView": 1,
      "componentType": 5126,
      "count": 23274,
      "max": [
        0.9989060163497925,
        0.9993460178375244
      ],
      "min": [
        0.002173010027036071,
        0.0011329699773341417
      ],
      "type": "VEC2"
    },
    {
      "bufferView": 0,
      "componentType": 5125,
      "count": 123012,
      "type": "SCALAR"
    }
  ],
  "asset": {
    "extras": {
      "author": "Anthony (https://sketchfab.com/antoman29)",
      "license": "CC-BY-SA-4.0 (http://creativecommons.org/licenses/by-sa/4.0/)",
      "source": "https://sketchfab.com/3d-models/unreal-engine-4-character-815b7d1a78f646e3a1614236351377a4",
      "title": "Unreal Engine 4 Character"
    },
    "generator": "Sketchfab-12.68.0",
    "version": "2.0"
  },
  "bufferViews": [
    {
      "buffer": 0,
      "byteLength": 492048,
      "name": "floatBufferViews",
      "target": 34963
    },
    {
      "buffer": 0,
      "byteLength": 186192,
      "byteOffset": 492048,
      "byteStride": 8,
      "name": "floatBufferViews",
      "target": 34962
    },
    {
      "buffer": 0,
      "byteLength": 558576,
      "byteOffset": 678240,
      "byteStride": 12,
      "name": "floatBufferViews",
      "target": 34962
    },
    {
      "buffer": 0,
      "byteLength": 372384,
      "byteOffset": 1236816,
      "byteStride": 16,
      "name": "floatBufferViews",
      "target": 34962
    }
  ],
  "buffers": [
    {
      "byteLength": 1609200,
      "uri": "scene.bin"
    }
  ],
  "images": [
    {
      "uri": "textures/M_UE4Man_Body_baseColor.jpeg"
    },
    {
      "uri": "textures/M_UE4Man_Body_metallicRoughness.png"
    },
    {
      "uri": "textures/M_UE4Man_Body_emissive.jpeg"
    },
    {
      "uri": "textures/M_UE4Man_Body_normal.jpeg"
    }
  ],
  "materials": [
    {
      "doubleSided": true,
      "emissiveFactor": [
        1.0,
        1.0,
        1.0
      ],
      "emissiveTexture": {
        "index": 2
      },
      "name": "M_UE4Man_Body",
      "normalTexture": {
        "index": 3
      },
      "occlusionTexture": {
        "index": 1
      },
      "pbrMetallicRoughness": {
        "baseColorTexture": {
          "index": 0
        },
        "metallicRoughnessTexture": {
          "index": 1
        }
      }
    }
  ],
  "meshes": [
    {
      "name": "defaultMaterial",
      "primitives": [
        {
          "attributes": {
            "NORMAL": 1,
            "POSITION": 0,
            "TANGENT": 2,
            "TEXCOORD_0": 3
          },
          "indices": 4,
          "material": 0,
          "mode": 4
        }
      ]
    }
  ],
  "nodes": [
    {
      "children": [
        1
      ],
      "matrix": [
        1.0,
        0.0,
        0.0,
        0.0,
        0.0,
        2.220446049250313e-16,
        -1.0,
        0.0,
        0.0,
        1.0,
        2.220446049250313e-16,
        0.0,
        0.0,
        0.0,
        0.0,
        1.0
      ],
      "name": "Sketchfab_model"
    },
    {
      "children": [
        2
      ],
      "matrix": [
        1.0,
        0.0,
        0.0,
        0.0,
        0.0,
        -4.371139006309477e-08,
        0.999999999999999,
        0.0,
        0.0,
        -0.999999999999999,
        -4.371139006309477e-08,
        0.0,
        0.0,
        0.0,
        0.0,
        1.0
      ],
      "name": "Collada visual scene group"
    },
    {
      "children": [
        3
      ],
      "name": "SK_Mannequin"
    },
    {
      "mesh": 0,
      "name": "defaultMaterial"
    }
  ],
  "samplers": [
    {
      "magFilter": 9729,
      "minFilter": 9987,
      "wrapS": 10497,
      "wrapT": 10497
    }
  ],
  "scene": 0,
  "scenes": [
    {
      "name": "Sketchfab_Scene",
      "nodes": [
        0
      ]
    }
  ],
  "textures": [
    {
      "sampler": 0,
      "source": 0
    },
    {
      "sampler": 0,
      "source": 1
    },
    {
      "sampler": 0,
      "source": 2
    },
    {
      "sampler": 0,
      "source": 3
    }
  ]
}
